<?xml version="1.0" standalone="no"?>
<!DOCTYPE svg PUBLIC "-//W3C//DTD SVG 20010904//EN"
 "http://www.w3.org/TR/2001/REC-SVG-20010904/DTD/svg10.dtd">
<svg version="1.0" xmlns="http://www.w3.org/2000/svg"
 width="204.000000pt" height="204.000000pt" viewBox="0 0 204.000000 204.000000"
 preserveAspectRatio="xMidYMid meet">
<metadata>
Created by potrace 1.11, written by Peter Selinger 2001-2013
</metadata>
<g transform="translate(0.000000,204.000000) scale(0.100000,-0.100000)"
fill="#000000" stroke="none">
<path d="M878 1985 c-2 -2 -21 -6 -43 -10 -88 -15 -126 -28 -245 -85 -64 -30
-100 -50 -110 -60 -3 -3 -24 -17 -47 -32 -57 -37 -173 -156 -217 -223 -32 -48
-77 -137 -101 -200 -11 -27 -11 -26 -38 -145 -101 -432 147 -905 563 -1074
132 -54 224 -71 380 -70 133 1 154 4 247 33 173 53 311 138 434 267 71 76 108
130 154 229 55 118 54 115 69 177 49 192 36 416 -32 578 -141 334 -373 529
-717 602 -45 9 -289 20 -297 13z"/>
</g>
</svg>
